<svg width="220" height="4" viewBox="0 0 220 4" fill="none" xmlns="http://www.w3.org/2000/svg">
<rect width="220" height="4" fill="#F5F5F5"/>
<g id="01-&#227;&#131;&#136;&#227;&#131;&#131;&#227;&#131;&#151;&#227;&#131;&#154;&#227;&#131;&#188;&#227;&#130;&#184;">
<rect width="1280" height="9380" transform="translate(-900 -2949)" fill="#F3EFEB"/>
<g id="special-lunchset">
<rect id="&#233;&#149;&#183;&#230;&#150;&#185;&#229;&#189;&#162; 23100" x="-900" y="-890" width="1280" height="1070" fill="#EAE0D5"/>
<g id="menu">
<rect id="&#233;&#149;&#183;&#230;&#150;&#185;&#229;&#189;&#162; 23092" x="-850" y="-657" width="1180" height="757" fill="white"/>
<g id="set-menu">
<path id="&#233;&#149;&#183;&#230;&#150;&#185;&#229;&#189;&#162; 23094" d="M-810 -163C-810 -167.418 -806.418 -171 -802 -171H282C286.418 -171 290 -167.418 290 -163V51C290 55.4183 286.418 59 282 59H-802C-806.418 59 -810 55.4183 -810 51V-163Z" fill="#F7F6F4"/>
<g id="price">
<g id="&#227;&#131;&#170;&#227;&#131;&#148;&#227;&#131;&#188;&#227;&#131;&#136;&#227;&#130;&#176;&#227;&#131;&#170;&#227;&#131;&#131;&#227;&#131;&#137; 17">
<g id="Group">
<circle id="&#230;&#165;&#149;&#229;&#134;&#134;&#229;&#189;&#162; 13" cx="2" cy="2.00024" r="2" fill="#222222"/>
</g>
<g id="Group_2">
<circle id="&#230;&#165;&#149;&#229;&#134;&#134;&#229;&#189;&#162; 13_2" cx="14" cy="2.00024" r="2" fill="#222222"/>
</g>
<g id="Group_3">
<circle id="&#230;&#165;&#149;&#229;&#134;&#134;&#229;&#189;&#162; 13_3" cx="26" cy="2.00024" r="2" fill="#222222"/>
</g>
<g id="Group_4">
<circle id="&#230;&#165;&#149;&#229;&#134;&#134;&#229;&#189;&#162; 13_4" cx="38" cy="2.00024" r="2" fill="#222222"/>
</g>
<g id="Group_5">
<circle id="&#230;&#165;&#149;&#229;&#134;&#134;&#229;&#189;&#162; 13_5" cx="50" cy="2.00024" r="2" fill="#222222"/>
</g>
<g id="Group_6">
<circle id="&#230;&#165;&#149;&#229;&#134;&#134;&#229;&#189;&#162; 13_6" cx="62" cy="2.00024" r="2" fill="#222222"/>
</g>
<g id="Group_7">
<circle id="&#230;&#165;&#149;&#229;&#134;&#134;&#229;&#189;&#162; 13_7" cx="74" cy="2.00024" r="2" fill="#222222"/>
</g>
<g id="Group_8">
<circle id="&#230;&#165;&#149;&#229;&#134;&#134;&#229;&#189;&#162; 13_8" cx="86" cy="2.00024" r="2" fill="#222222"/>
</g>
<g id="Group_9">
<circle id="&#230;&#165;&#149;&#229;&#134;&#134;&#229;&#189;&#162; 13_9" cx="98" cy="2.00024" r="2" fill="#222222"/>
</g>
<g id="Group_10">
<circle id="&#230;&#165;&#149;&#229;&#134;&#134;&#229;&#189;&#162; 13_10" cx="110" cy="2.00024" r="2" fill="#222222"/>
</g>
<g id="Group_11">
<circle id="&#230;&#165;&#149;&#229;&#134;&#134;&#229;&#189;&#162; 13_11" cx="122" cy="2.00024" r="2" fill="#222222"/>
</g>
<g id="Group_12">
<circle id="&#230;&#165;&#149;&#229;&#134;&#134;&#229;&#189;&#162; 13_12" cx="134" cy="2.00024" r="2" fill="#222222"/>
</g>
<g id="Group_13">
<circle id="&#230;&#165;&#149;&#229;&#134;&#134;&#229;&#189;&#162; 13_13" cx="146" cy="2.00024" r="2" fill="#222222"/>
</g>
<g id="Group_14">
<circle id="&#230;&#165;&#149;&#229;&#134;&#134;&#229;&#189;&#162; 13_14" cx="158" cy="2.00024" r="2" fill="#222222"/>
</g>
<g id="Group_15">
<circle id="&#230;&#165;&#149;&#229;&#134;&#134;&#229;&#189;&#162; 13_15" cx="170" cy="2.00024" r="2" fill="#222222"/>
</g>
<g id="Group_16">
<circle id="&#230;&#165;&#149;&#229;&#134;&#134;&#229;&#189;&#162; 13_16" cx="182" cy="2.00024" r="2" fill="#222222"/>
</g>
<g id="Group_17">
<circle id="&#230;&#165;&#149;&#229;&#134;&#134;&#229;&#189;&#162; 13_17" cx="194" cy="2.00024" r="2" fill="#222222"/>
</g>
<g id="Group_18">
<circle id="&#230;&#165;&#149;&#229;&#134;&#134;&#229;&#189;&#162; 13_18" cx="206" cy="2.00024" r="2" fill="#222222"/>
</g>
<g id="Group_19">
<circle id="&#230;&#165;&#149;&#229;&#134;&#134;&#229;&#189;&#162; 13_19" cx="218" cy="2.00024" r="2" fill="#222222"/>
</g>
</g>
</g>
</g>
</g>
</g>
</g>
</svg>
