<svg width="12" height="15" viewBox="0 0 12 15" fill="none" xmlns="http://www.w3.org/2000/svg">
<path d="M0.402026 14.9152C0.523358 14.9783 0.659586 15.0072 0.796089 14.9987C0.932591 14.9903 1.06421 14.9448 1.17683 14.8672L10.9275 8.11678C11.0271 8.04775 11.1085 7.9556 11.1648 7.84823C11.221 7.74085 11.2504 7.62145 11.2504 7.50024C11.2504 7.37903 11.221 7.25962 11.1648 7.15225C11.1085 7.04487 11.0271 6.95272 10.9275 6.8837L1.17683 0.133256C1.0643 0.0553951 0.932617 0.00980145 0.796037 0.00141142C0.659457 -0.00697862 0.523184 0.0221548 0.401973 0.085657C0.280763 0.149159 0.179234 0.244611 0.10838 0.361676C0.0375256 0.478741 4.61905e-05 0.612958 1.0188e-08 0.749796V14.2507C-2.2552e-05 14.3876 0.0374297 14.5219 0.108297 14.639C0.179165 14.7562 0.280745 14.8517 0.402026 14.9152Z" fill="white"/>
</svg>
